<mxfile host="app.diagrams.net" modified="2024-02-13T13:36:24.972Z" agent="Mozilla/5.0 (Windows NT 10.0; Win64; x64; rv:122.0) Gecko/20100101 Firefox/122.0" etag="lyZsiH6aD1e_8ct5Em8y" version="23.1.3" type="device">
  <diagram name="Страница — 1" id="xNgjhcP0F6RCaTXv2Yzx">
    <mxGraphModel dx="794" dy="433" grid="1" gridSize="10" guides="1" tooltips="1" connect="1" arrows="0" fold="1" page="1" pageScale="1" pageWidth="827" pageHeight="1169" math="0" shadow="0">
      <root>
        <mxCell id="0" />
        <mxCell id="1" parent="0" />
        <mxCell id="4wQvC1eoPzFsa-Fu2dIV-3" value="" style="edgeStyle=orthogonalEdgeStyle;rounded=0;orthogonalLoop=1;jettySize=auto;html=1;" edge="1" parent="1" source="4wQvC1eoPzFsa-Fu2dIV-1" target="4wQvC1eoPzFsa-Fu2dIV-2">
          <mxGeometry relative="1" as="geometry" />
        </mxCell>
        <mxCell id="4wQvC1eoPzFsa-Fu2dIV-1" value="Start" style="ellipse;whiteSpace=wrap;html=1;" vertex="1" parent="1">
          <mxGeometry x="180" y="40" width="120" height="80" as="geometry" />
        </mxCell>
        <mxCell id="4wQvC1eoPzFsa-Fu2dIV-5" value="" style="edgeStyle=orthogonalEdgeStyle;rounded=0;orthogonalLoop=1;jettySize=auto;html=1;" edge="1" parent="1" source="4wQvC1eoPzFsa-Fu2dIV-2" target="4wQvC1eoPzFsa-Fu2dIV-4">
          <mxGeometry relative="1" as="geometry" />
        </mxCell>
        <mxCell id="4wQvC1eoPzFsa-Fu2dIV-2" value="i,j" style="shape=parallelogram;perimeter=parallelogramPerimeter;whiteSpace=wrap;html=1;fixedSize=1;" vertex="1" parent="1">
          <mxGeometry x="180" y="160" width="120" height="60" as="geometry" />
        </mxCell>
        <mxCell id="4wQvC1eoPzFsa-Fu2dIV-6" style="edgeStyle=orthogonalEdgeStyle;rounded=0;orthogonalLoop=1;jettySize=auto;html=1;exitX=0.5;exitY=1;exitDx=0;exitDy=0;" edge="1" parent="1" source="4wQvC1eoPzFsa-Fu2dIV-4">
          <mxGeometry relative="1" as="geometry">
            <mxPoint x="240" y="330" as="targetPoint" />
          </mxGeometry>
        </mxCell>
        <mxCell id="4wQvC1eoPzFsa-Fu2dIV-8" value="" style="edgeStyle=orthogonalEdgeStyle;rounded=0;orthogonalLoop=1;jettySize=auto;html=1;" edge="1" parent="1" source="4wQvC1eoPzFsa-Fu2dIV-4" target="4wQvC1eoPzFsa-Fu2dIV-7">
          <mxGeometry relative="1" as="geometry" />
        </mxCell>
        <mxCell id="4wQvC1eoPzFsa-Fu2dIV-4" value="&lt;div&gt;random Dlina&lt;/div&gt;&lt;div&gt;random Slych&lt;/div&gt;&lt;div&gt;char&amp;nbsp; massiv&lt;/div&gt;&lt;div&gt;string Stroka&lt;/div&gt;&lt;div&gt;int r; int d где d - длина строки&amp;nbsp;&lt;/div&gt;&lt;div&gt;&lt;br&gt;&lt;/div&gt;" style="rounded=0;whiteSpace=wrap;html=1;" vertex="1" parent="1">
          <mxGeometry x="110" y="260" width="260" height="110" as="geometry" />
        </mxCell>
        <mxCell id="4wQvC1eoPzFsa-Fu2dIV-10" value="" style="edgeStyle=orthogonalEdgeStyle;rounded=0;orthogonalLoop=1;jettySize=auto;html=1;" edge="1" parent="1" source="4wQvC1eoPzFsa-Fu2dIV-7" target="4wQvC1eoPzFsa-Fu2dIV-9">
          <mxGeometry relative="1" as="geometry" />
        </mxCell>
        <mxCell id="4wQvC1eoPzFsa-Fu2dIV-7" value="Заполнение двумерного массива i,j случайными значениями" style="rounded=0;whiteSpace=wrap;html=1;" vertex="1" parent="1">
          <mxGeometry x="150" y="400" width="180" height="60" as="geometry" />
        </mxCell>
        <mxCell id="4wQvC1eoPzFsa-Fu2dIV-12" value="да" style="edgeStyle=orthogonalEdgeStyle;rounded=0;orthogonalLoop=1;jettySize=auto;html=1;entryX=0.5;entryY=0;entryDx=0;entryDy=0;" edge="1" parent="1" source="4wQvC1eoPzFsa-Fu2dIV-9" target="4wQvC1eoPzFsa-Fu2dIV-33">
          <mxGeometry relative="1" as="geometry">
            <mxPoint x="240" y="590" as="targetPoint" />
          </mxGeometry>
        </mxCell>
        <mxCell id="4wQvC1eoPzFsa-Fu2dIV-29" value="нет" style="edgeStyle=orthogonalEdgeStyle;rounded=0;orthogonalLoop=1;jettySize=auto;html=1;exitX=1;exitY=0.5;exitDx=0;exitDy=0;" edge="1" parent="1" source="4wQvC1eoPzFsa-Fu2dIV-9">
          <mxGeometry relative="1" as="geometry">
            <mxPoint x="280" y="560" as="sourcePoint" />
            <mxPoint x="240" y="960" as="targetPoint" />
            <Array as="points">
              <mxPoint x="390" y="530" />
              <mxPoint x="390" y="960" />
            </Array>
          </mxGeometry>
        </mxCell>
        <mxCell id="4wQvC1eoPzFsa-Fu2dIV-9" value="i&amp;lt; кол-во строк; i++" style="rhombus;whiteSpace=wrap;html=1;" vertex="1" parent="1">
          <mxGeometry x="200" y="490" width="80" height="80" as="geometry" />
        </mxCell>
        <mxCell id="4wQvC1eoPzFsa-Fu2dIV-14" value="да" style="edgeStyle=orthogonalEdgeStyle;rounded=0;orthogonalLoop=1;jettySize=auto;html=1;" edge="1" parent="1" source="4wQvC1eoPzFsa-Fu2dIV-11" target="4wQvC1eoPzFsa-Fu2dIV-13">
          <mxGeometry relative="1" as="geometry" />
        </mxCell>
        <mxCell id="4wQvC1eoPzFsa-Fu2dIV-11" value="j&amp;lt;d" style="rhombus;whiteSpace=wrap;html=1;" vertex="1" parent="1">
          <mxGeometry x="200" y="740" width="80" height="80" as="geometry" />
        </mxCell>
        <mxCell id="4wQvC1eoPzFsa-Fu2dIV-32" value="" style="edgeStyle=orthogonalEdgeStyle;rounded=0;orthogonalLoop=1;jettySize=auto;html=1;" edge="1" parent="1" source="4wQvC1eoPzFsa-Fu2dIV-13" target="4wQvC1eoPzFsa-Fu2dIV-31">
          <mxGeometry relative="1" as="geometry" />
        </mxCell>
        <mxCell id="4wQvC1eoPzFsa-Fu2dIV-13" value="вывод строки" style="shape=document;whiteSpace=wrap;html=1;boundedLbl=1;" vertex="1" parent="1">
          <mxGeometry x="180" y="870" width="120" height="80" as="geometry" />
        </mxCell>
        <mxCell id="4wQvC1eoPzFsa-Fu2dIV-26" value="нет" style="endArrow=classic;html=1;rounded=0;exitX=1;exitY=0.5;exitDx=0;exitDy=0;entryX=1;entryY=0.5;entryDx=0;entryDy=0;" edge="1" parent="1" source="4wQvC1eoPzFsa-Fu2dIV-11" target="4wQvC1eoPzFsa-Fu2dIV-33">
          <mxGeometry x="0.0476" width="50" height="50" relative="1" as="geometry">
            <mxPoint x="40" y="710" as="sourcePoint" />
            <mxPoint x="320" y="650" as="targetPoint" />
            <Array as="points">
              <mxPoint x="320" y="780" />
              <mxPoint x="320" y="650" />
            </Array>
            <mxPoint as="offset" />
          </mxGeometry>
        </mxCell>
        <mxCell id="4wQvC1eoPzFsa-Fu2dIV-27" value="нет" style="endArrow=classic;html=1;rounded=0;exitX=0;exitY=0.5;exitDx=0;exitDy=0;entryX=0;entryY=0.5;entryDx=0;entryDy=0;" edge="1" parent="1" source="4wQvC1eoPzFsa-Fu2dIV-33" target="4wQvC1eoPzFsa-Fu2dIV-9">
          <mxGeometry x="0.0714" width="50" height="50" relative="1" as="geometry">
            <mxPoint x="80" y="580" as="sourcePoint" />
            <mxPoint x="170" y="540" as="targetPoint" />
            <Array as="points">
              <mxPoint x="140" y="650" />
              <mxPoint x="140" y="530" />
            </Array>
            <mxPoint as="offset" />
          </mxGeometry>
        </mxCell>
        <mxCell id="4wQvC1eoPzFsa-Fu2dIV-31" value="Стоп" style="ellipse;whiteSpace=wrap;html=1;" vertex="1" parent="1">
          <mxGeometry x="180" y="990" width="120" height="80" as="geometry" />
        </mxCell>
        <mxCell id="4wQvC1eoPzFsa-Fu2dIV-34" value="да" style="edgeStyle=orthogonalEdgeStyle;rounded=0;orthogonalLoop=1;jettySize=auto;html=1;" edge="1" parent="1" source="4wQvC1eoPzFsa-Fu2dIV-33" target="4wQvC1eoPzFsa-Fu2dIV-11">
          <mxGeometry relative="1" as="geometry" />
        </mxCell>
        <mxCell id="4wQvC1eoPzFsa-Fu2dIV-33" value="j&amp;lt;длины строки; j++" style="rhombus;whiteSpace=wrap;html=1;" vertex="1" parent="1">
          <mxGeometry x="200" y="610" width="80" height="80" as="geometry" />
        </mxCell>
      </root>
    </mxGraphModel>
  </diagram>
</mxfile>
